<?xml version="1.0" standalone="no"?>
<!DOCTYPE svg PUBLIC "-//W3C//DTD SVG 20010904//EN"
 "http://www.w3.org/TR/2001/REC-SVG-20010904/DTD/svg10.dtd">
<svg version="1.0" xmlns="http://www.w3.org/2000/svg"
 width="400.000000pt" height="400.000000pt" viewBox="0 0 400.000000 400.000000"
 preserveAspectRatio="xMidYMid meet">
<metadata>
Created by potrace 1.11, written by Peter Selinger 2001-2013
</metadata>
<g transform="translate(0.000000,400.000000) scale(0.100000,-0.100000)"
fill="#000000" stroke="none">
<path d="M0 2000 l0 -2000 2000 0 2000 0 0 2000 0 2000 -2000 0 -2000 0 0
-2000z m2810 1066 c0 -2 -31 -23 -70 -46 -48 -29 -70 -48 -70 -61 0 -17 -3
-18 -20 -9 -13 7 -20 21 -20 39 0 40 66 80 133 81 26 0 47 -2 47 -4z m405 -52
c14 -9 23 -19 20 -23 -2 -4 -36 -14 -75 -21 -51 -10 -98 -28 -162 -65 -51 -28
-93 -55 -95 -61 -4 -13 158 -118 166 -107 3 4 25 21 49 36 33 22 46 25 61 17
11 -5 33 -7 49 -4 20 4 38 1 52 -9 21 -14 27 -12 97 30 l76 46 33 -18 c46 -25
50 -32 57 -92 5 -46 4 -53 -14 -58 -11 -4 -30 0 -44 9 -13 9 -30 16 -37 15 -7
0 -51 -24 -98 -53 -86 -53 -106 -80 -80 -111 20 -24 -8 -27 -48 -4 l-38 22
-56 -36 c-31 -19 -59 -33 -62 -29 -4 3 -19 -8 -35 -24 -16 -16 -40 -36 -54
-43 -22 -12 -29 -11 -54 6 -15 11 -43 28 -61 37 l-33 17 -137 -89 c-127 -83
-257 -163 -667 -412 -88 -53 -228 -142 -311 -197 -162 -106 -300 -183 -331
-183 -10 0 -47 -14 -81 -30 -35 -17 -70 -30 -78 -30 -8 0 -37 -12 -65 -26 -28
-14 -54 -23 -57 -20 -3 3 -3 7 -1 9 2 2 25 19 52 37 26 18 47 39 47 46 0 7 17
26 37 41 21 15 40 30 43 34 11 12 201 149 320 231 69 47 247 155 395 240 309
177 464 270 585 352 182 121 171 108 166 208 -4 77 -4 78 25 99 23 16 29 28
29 59 0 35 -4 41 -40 61 -22 13 -40 26 -40 30 0 4 14 16 32 27 l32 21 37 -21
c29 -16 40 -18 57 -9 15 8 23 8 28 0 4 -7 22 -9 45 -6 24 3 45 0 58 -9 18 -13
27 -10 93 30 40 24 77 45 81 45 4 1 19 -6 32 -15z m-2366 -151 c7 -8 12 -15
10 -17 -2 -2 -24 -15 -47 -30 -46 -29 -73 -27 -122 7 -19 13 -17 16 37 50 56
34 59 35 83 20 14 -9 31 -23 39 -30z m11 -107 c0 -21 -10 -25 -41 -14 -34 12
-35 16 -12 33 20 15 53 3 53 -19z m-310 -36 l25 -19 -23 -21 c-12 -11 -22 -25
-22 -31 0 -6 -13 -1 -30 11 -34 24 -39 54 -12 69 24 15 34 13 62 -9z m655
-120 c8 0 69 29 137 65 67 36 123 65 125 65 19 0 -18 -32 -126 -108 -71 -51
-134 -99 -141 -107 -18 -22 -22 -20 -77 29 l-49 45 -77 -46 c-42 -25 -77 -49
-77 -53 0 -4 30 -29 68 -54 l67 -46 -3 -80 c-3 -77 -5 -81 -32 -95 -16 -8 -32
-15 -35 -15 -3 0 -2 30 1 66 6 55 5 66 -7 62 -10 -4 -14 -25 -14 -81 0 -64 -3
-80 -21 -97 l-21 -21 -82 53 -81 53 1 45 c1 25 -1 52 -4 60 -3 8 -7 26 -9 40
-3 24 -4 24 -44 -17 -23 -24 -46 -43 -50 -43 -5 0 -44 22 -86 49 l-77 50 6 65
c5 55 3 67 -11 72 -9 3 -16 16 -16 29 0 24 37 46 75 44 11 -1 41 7 66 17 l47
17 52 -37 53 -38 36 18 c20 10 39 20 44 22 4 2 7 -2 7 -10 0 -7 22 -27 48 -44
l48 -32 52 32 c29 17 52 34 52 37 0 4 -22 21 -50 39 -27 18 -50 35 -50 39 0 3
12 14 27 23 26 16 28 15 120 -48 51 -35 100 -64 108 -64z m-372 87 c16 -11 15
-14 -12 -30 -25 -15 -35 -16 -53 -6 -33 17 -33 18 -12 34 24 18 55 19 77 2z
m2599 -108 c43 -28 75 -55 72 -60 -3 -5 -19 -16 -35 -25 -29 -15 -31 -14 -105
33 -42 26 -78 51 -80 54 -3 6 50 45 65 48 3 1 40 -22 83 -50z m194 -115 c-5
-25 -17 -38 -52 -59 -43 -25 -46 -26 -70 -10 -42 27 -28 54 51 103 67 41 70
42 73 21 2 -12 1 -36 -2 -55z m-2533 42 l29 -23 -29 -21 -29 -21 -30 24 -29
25 25 20 c31 24 29 24 63 -4z m357 -55 c19 -16 33 -31 30 -34 -14 -13 -323
-197 -331 -197 -20 0 -59 33 -59 50 0 10 10 25 23 33 21 14 25 13 48 -4 13
-10 28 -19 33 -19 15 0 146 81 146 91 0 4 -9 13 -20 19 -11 6 -20 15 -20 20 0
7 97 69 110 70 3 0 21 -13 40 -29z m14 -97 c22 -8 20 -37 -3 -58 -10 -9 -85
-57 -166 -107 l-147 -89 -29 21 c-16 11 -29 28 -29 38 0 22 51 52 70 41 11 -6
56 17 150 75 159 98 135 86 154 79z m-720 -111 c-24 -39 -204 -106 -204 -76 0
25 80 76 155 99 45 13 66 4 49 -23z m1538 -822 l32 -28 -40 -26 c-23 -14 -53
-24 -70 -23 -32 2 -74 22 -74 36 0 10 90 68 107 69 7 1 27 -12 45 -28z m17
-100 c8 -5 11 -16 8 -25 -7 -18 -34 -21 -57 -6 -13 9 -12 12 4 25 23 17 26 18
45 6z m-291 -64 c10 -11 9 -17 -3 -27 -8 -7 -15 -19 -15 -26 0 -18 -15 -18
-45 2 -31 20 -32 47 -2 67 23 15 43 10 65 -16z m528 -43 c118 -85 107 -85 251
-8 68 36 127 63 130 60 4 -3 4 -7 2 -9 -2 -2 -62 -46 -134 -97 -71 -51 -135
-100 -142 -109 -10 -13 -18 -9 -62 32 -27 26 -54 47 -58 47 -14 -1 -147 -86
-150 -96 -1 -5 28 -30 65 -55 l67 -47 -3 -76 c-3 -71 -6 -77 -33 -97 l-29 -20
0 66 c0 49 -3 66 -12 63 -9 -3 -15 -34 -18 -88 -7 -114 -15 -118 -116 -53
l-79 50 -1 49 c-1 88 -4 114 -14 114 -6 0 -30 -18 -54 -40 l-44 -41 -71 46
c-38 25 -73 51 -77 57 -4 6 -6 37 -5 68 2 41 -2 60 -13 69 -9 8 -16 22 -16 32
0 23 58 55 72 41 7 -7 21 -5 41 6 18 8 40 19 50 24 13 6 33 -2 77 -32 l60 -40
40 25 c46 29 51 30 44 11 -3 -9 11 -26 40 -45 24 -17 48 -31 51 -31 4 0 31 14
61 32 l53 32 -56 40 -55 39 23 18 c13 10 27 19 30 19 4 0 42 -25 85 -56z
m-271 24 c32 -14 32 -25 0 -40 -19 -8 -32 -8 -52 1 l-27 13 24 19 c30 22 24
21 55 7z m284 -192 l22 -23 -25 -17 c-33 -21 -38 -20 -65 8 l-22 24 22 16 c31
21 42 20 68 -8z m348 -47 c19 -12 32 -26 30 -33 -2 -6 -76 -55 -165 -109
l-161 -98 -31 17 c-38 23 -40 56 -5 72 22 10 30 9 54 -9 l28 -21 69 42 c87 53
83 48 55 71 -26 22 -26 23 34 63 48 31 49 31 92 5z m-937 -88 c0 -28 -97 -109
-149 -126 l-24 -7 23 32 c42 60 150 132 150 101z m968 -37 c2 -11 -5 -27 -15
-35 -27 -23 -302 -189 -314 -189 -20 0 -59 33 -59 50 0 24 46 53 70 45 14 -4
59 18 152 75 73 44 140 79 148 78 8 -2 16 -12 18 -24z m-738 -108 c0 -23 -64
-66 -136 -92 -117 -43 -154 -22 -67 37 85 59 203 90 203 55z"/>
<path d="M2828 2674 c3 -17 9 -23 19 -20 8 3 19 6 25 6 6 0 -1 9 -15 20 -32
26 -35 25 -29 -6z"/>
<path d="M2910 2630 c0 -8 5 -22 10 -30 9 -13 10 -13 10 0 0 8 -5 22 -10 30
-9 13 -10 13 -10 0z"/>
<path d="M560 2491 c0 -22 8 -35 30 -51 l30 -21 0 30 c0 22 -8 35 -30 51 l-30
21 0 -30z"/>
<path d="M833 2301 c6 -30 40 -70 60 -71 5 0 7 14 5 30 -2 23 -12 37 -37 53
l-34 21 6 -33z"/>
<path d="M2010 1034 c0 -23 33 -63 53 -64 17 0 5 53 -15 71 -31 25 -38 24 -38
-7z"/>
<path d="M2284 843 c4 -16 19 -38 34 -50 l27 -23 3 27 c3 20 -4 34 -23 50 -35
31 -49 29 -41 -4z"/>
</g>
</svg>
