<?xml version="1.0" standalone="no"?>
<!DOCTYPE svg PUBLIC "-//W3C//DTD SVG 20010904//EN"
 "http://www.w3.org/TR/2001/REC-SVG-20010904/DTD/svg10.dtd">
<svg version="1.0" xmlns="http://www.w3.org/2000/svg"
 width="260.000000pt" height="260.000000pt" viewBox="0 0 260.000000 260.000000"
 preserveAspectRatio="xMidYMid meet">
<metadata>
Created by potrace 1.14, written by Peter Selinger 2001-2017
</metadata>
<g transform="translate(0.000000,260.000000) scale(0.100000,-0.100000)"
fill="#000000" stroke="none">
<path d="M0 1300 l0 -1300 1300 0 1300 0 0 1300 0 1300 -1300 0 -1300 0 0
-1300z m435 909 c3 -4 31 -78 62 -165 73 -209 87 -250 178 -504 112 -311 111
-309 118 -317 4 -3 7 212 7 480 0 428 2 487 16 501 12 13 40 16 140 16 69 0
134 -5 145 -10 19 -10 19 -31 19 -910 0 -879 0 -900 -19 -910 -31 -16 -257
-13 -274 4 -13 13 -84 206 -328 894 -18 50 -37 92 -41 92 -4 0 -8 -220 -8
-488 0 -366 -3 -491 -12 -500 -17 -17 -269 -17 -286 0 -18 18 -17 1814 1 1822
17 7 274 3 282 -5z m1645 -19 c10 -18 26 -90 70 -300 10 -47 32 -150 50 -230
18 -80 40 -183 50 -230 10 -47 41 -193 70 -325 152 -697 152 -696 139 -711 -9
-11 -44 -14 -143 -14 -72 0 -137 4 -144 8 -7 5 -24 69 -38 143 -14 74 -31 153
-36 177 l-11 42 -200 -2 -201 -3 -8 -30 c-4 -16 -19 -93 -34 -170 -14 -77 -31
-146 -37 -153 -7 -9 -46 -12 -151 -10 l-141 3 2 45 c0 25 15 110 33 190 17 80
51 235 76 345 24 110 50 234 59 275 8 41 28 136 45 210 17 74 40 178 50 230
11 52 37 175 60 273 22 98 40 186 40 195 0 10 7 28 16 40 15 21 20 22 194 22
168 0 180 -1 190 -20z"/>
<path d="M1875 1758 c-3 -13 -14 -75 -25 -138 -27 -147 -65 -356 -89 -487 -10
-56 -16 -105 -13 -108 3 -3 68 -5 144 -5 l139 0 -6 38 c-9 56 -42 238 -75 412
-16 85 -34 188 -40 227 -12 76 -26 100 -35 61z"/>
</g>
</svg>
